HIERARCHY
ROOT Hips
{
	OFFSET -3.958830 18.904000 13.208200
	CHANNELS 6 Xposition Yposition Zposition Zrotation Yrotation Xrotation 
	JOINT LHipJoint
	{
		OFFSET 0.000000 0.000000 0.000000
		CHANNELS 3 Zrotation Yrotation Xrotation
		JOINT LeftUpLeg
		{
			OFFSET 1.800000 -1.400000 0.085000
			CHANNELS 3 Zrotation Yrotation Xrotation
			JOINT LeftLeg
			{
				OFFSET 2.215000 -6.000000 0.000000
				CHANNELS 3 Zrotation Yrotation Xrotation
				JOINT LeftFoot
				{
					OFFSET 2.500000 -6.900000 0.000000
					CHANNELS 3 Zrotation Yrotation Xrotation
					JOINT LeftToeBase
					{
						OFFSET 0.200000 -0.500000 1.950000
						CHANNELS 3 Zrotation Yrotation Xrotation
						End Site
						{
							OFFSET 0.000000 0.000000 0.000000
						}
					}
				}
			}
		}
	}
	JOINT RHipJoint
	{
		OFFSET 0.000000 0.000000 0.000000
		CHANNELS 3 Zrotation Yrotation Xrotation
		JOINT RightUpLeg
		{
			OFFSET -1.800000 -1.400000 0.085000
			CHANNELS 3 Zrotation Yrotation Xrotation
			JOINT RightLeg
			{
				OFFSET -2.215000 -6.000000 0.000000
				CHANNELS 3 Zrotation Yrotation Xrotation
				JOINT RightFoot
				{
					OFFSET -2.500000 -6.900000 0.000000
					CHANNELS 3 Zrotation Yrotation Xrotation
					JOINT RightToeBase
					{
						OFFSET -0.200000 -0.500000 1.950000
						CHANNELS 3 Zrotation Yrotation Xrotation
						End Site
						{
							OFFSET 0.000000 0.000000 0.000000
						}
					}
				}
			}
		}
	}
	JOINT LowerBack
	{
		OFFSET 0.000000 0.000000 0.000000
		CHANNELS 3 Zrotation Yrotation Xrotation
		JOINT Spine
		{
			OFFSET -0.087000 1.940000 -0.288900
			CHANNELS 3 Zrotation Yrotation Xrotation
			JOINT Spine1
			{
				OFFSET 0.000000 1.950000 0.060000
				CHANNELS 3 Zrotation Yrotation Xrotation
				JOINT Neck
				{
					OFFSET 0.000000 0.000000 0.000000
					CHANNELS 3 Zrotation Yrotation Xrotation
					JOINT Neck1
					{
						OFFSET 0.000000 1.600000 0.340000
						CHANNELS 3 Zrotation Yrotation Xrotation
						JOINT Head
						{
							OFFSET 0.000000 1.667000 -0.240000
							CHANNELS 3 Zrotation Yrotation Xrotation
							End Site
							{
								OFFSET 0.000000 0.000000 0.000000
							}
						}
					}
				}
				JOINT LeftShoulder
				{
					OFFSET 0.000000 0.000000 0.000000
					CHANNELS 3 Zrotation Yrotation Xrotation
					JOINT LeftArm
					{
						OFFSET 2.700000 1.550000 -0.730000
						CHANNELS 3 Zrotation Yrotation Xrotation
						JOINT LeftForeArm
						{
							OFFSET 5.450000 0.000000 0.000000
							CHANNELS 3 Zrotation Yrotation Xrotation
							JOINT LeftHand
							{
								OFFSET 3.450000 0.000000 0.000000
								CHANNELS 3 Zrotation Yrotation Xrotation
								JOINT LeftHandIndex1
								{
									OFFSET 0.750000 0.000000 0.000000
									CHANNELS 3 Zrotation Yrotation Xrotation
									End Site
									{
										OFFSET 0.000000 0.000000 0.000000
									}
								}
							}
						}
					}
				}
				JOINT RightShoulder
				{
					OFFSET 0.000000 0.000000 0.000000
					CHANNELS 3 Zrotation Yrotation Xrotation
					JOINT RightArm
					{
						OFFSET -2.700000 1.550000 -0.730000
						CHANNELS 3 Zrotation Yrotation Xrotation
						JOINT RightForeArm
						{
							OFFSET -5.450000 0.000000 0.000000
							CHANNELS 3 Zrotation Yrotation Xrotation
							JOINT RightHand
							{
								OFFSET -3.450000 0.000000 0.000000
								CHANNELS 3 Zrotation Yrotation Xrotation
								JOINT RightHandIndex1
								{
									OFFSET -0.750000 0.000000 0.000000
									CHANNELS 3 Zrotation Yrotation Xrotation
									End Site
									{
										OFFSET 0.000000 0.000000 0.000000
									}
								}
							}
						}
					}
				}
			}
		}
	}
}
MOTION
Frames: 8
Frame Time: 0.016667
-0.895800 15.894280 -1.173250 -8.267302 -9.960602 -6.895035 -15.950028 11.694771 4.945092 32.207586 -0.964917 -31.724093 -6.878686 23.180307 61.188814 1.237528 13.014127 0.044351 0.747520 0.404040 0.616310 17.936820 -8.764851 3.065394 -19.314781 6.869991 -31.062062 12.028216 -17.958807 56.298365 -1.642700 -9.711186 1.151392 0.129820 -0.064410 0.182570 -2.038894 -2.625734 -9.497002 -5.952773 4.418066 21.146966 7.191660 4.108989 2.952929 -0.644569 -1.711818 -13.522852 -7.540367 2.869320 52.021261 5.179120 0.249490 -13.190250 -25.159198 -20.657785 6.616109 -47.959635 -8.298780 -5.794942 -23.651763 -27.488922 2.045290 -3.276484 3.011917 0.784500 -0.171150 0.274620 0.272400 28.309768 25.441024 9.216640 50.655583 8.571144 -7.888359 23.086858 23.487812 1.578874 2.108097 -1.413950 -0.054610 0.178260 -0.302790 -0.236210 
-0.934600 15.937040 -1.169340 -8.497109 -9.712932 -7.152659 -15.949222 11.822364 4.818236 32.150731 -0.781903 -31.031104 -6.061412 22.282876 60.390569 1.159261 12.759307 0.106655 0.746790 0.399140 0.624320 17.915052 -8.864032 3.018381 -18.694769 6.882635 -30.046256 12.356448 -17.762310 55.400981 -1.620765 -9.570122 1.193468 0.126030 -0.063090 0.193780 -1.997761 -2.617786 -9.393047 -6.587623 4.653993 20.837157 7.223869 4.248694 3.398815 -0.514014 -1.206675 -13.521838 -6.464421 2.436759 52.404250 5.032570 0.326580 -13.277980 -24.730512 -20.814320 6.692546 -48.113593 -8.733930 -5.595575 -22.958905 -27.383063 1.908112 -3.289839 3.000184 0.789430 -0.165180 0.279790 0.267270 27.606263 25.348420 9.240867 50.387462 8.668482 -8.075915 24.721946 24.542228 1.903974 2.102227 -1.420869 -0.053080 0.178350 -0.297000 -0.241140 
-1.012550 16.021450 -1.156000 -9.046378 -9.047778 -7.515675 -15.949833 12.056281 4.603158 32.189561 -0.423493 -29.832804 -4.775918 20.645186 58.418855 0.996522 12.243207 0.241936 0.740320 0.387170 0.622650 17.877057 -9.042353 2.906339 -17.262091 6.820429 -28.005797 12.762766 -17.267408 53.645996 -1.562785 -9.276595 1.290815 0.126180 -0.044730 0.201970 -1.925685 -2.634566 -9.186364 -7.830995 4.906270 20.132591 7.145910 4.362467 4.100551 -0.262490 -0.269982 -13.343121 -4.468934 1.801060 52.655870 5.321790 0.365740 -13.105020 -23.713043 -20.829542 6.719574 -48.209252 -9.746182 -4.877538 -22.101036 -26.587233 1.716558 -3.321219 2.980201 0.792210 -0.146890 0.271560 0.265060 26.035837 24.790736 9.072311 49.431901 9.141322 -7.997233 29.182735 26.148225 2.807450 2.101997 -1.443386 -0.063670 0.186010 -0.285380 -0.247150 
-1.100980 16.130860 -1.140590 -9.840457 -8.521617 -8.278280 -15.940845 12.390170 4.326770 32.381728 0.150663 -27.870054 -3.356893 18.719933 55.560113 0.813270 11.550280 0.424457 0.755050 0.400060 0.645550 17.828773 -9.295715 2.751976 -15.159810 6.695091 -24.944301 12.977294 -16.318952 51.088575 -1.484199 -8.790819 1.441551 0.132930 -0.058520 0.213880 -1.847784 -2.657611 -8.934347 -9.021700 5.156541 19.631093 6.690501 4.597999 5.058082 0.368100 0.855648 -13.475031 -2.062055 1.004138 53.582189 5.361800 0.483370 -13.128070 -22.748009 -21.200349 6.923409 -47.914540 -10.582556 -4.289373 -20.757569 -25.926248 1.459822 -3.322710 2.973183 0.799390 -0.147150 0.286480 0.262090 23.731015 24.585545 9.124000 47.126963 9.680300 -7.859895 36.220089 28.644578 4.529250 2.122165 -1.496509 -0.057490 0.176920 -0.293220 -0.255350 
-1.190580 16.233370 -1.114500 -10.677885 -8.037108 -8.520768 -15.928387 12.645936 4.065177 32.530993 0.756563 -26.331342 -1.867292 16.980720 52.778588 0.669824 10.926650 0.620518 0.725450 0.369620 0.613560 17.802551 -9.518028 2.622988 -13.208156 6.365749 -22.130569 13.355728 -15.424013 48.041725 -1.363682 -8.299364 1.618806 0.119610 -0.011850 0.226140 -1.813624 -2.610498 -8.674978 -9.802873 5.211834 18.419846 5.742797 4.800415 6.210096 1.126116 1.864225 -13.439102 0.221281 0.264016 53.051751 5.234540 0.203250 -11.597690 -21.232544 -21.221919 7.007501 -47.937575 -11.643916 -3.524999 -20.072381 -25.250638 1.362260 -3.373434 2.976698 0.758190 -0.102190 0.250970 0.267230 20.570821 24.034947 9.107591 44.328648 10.306372 -7.405674 45.207671 31.600800 7.227348 2.149804 -1.577009 -0.059120 0.174430 -0.275630 -0.240720 
-1.278460 16.341570 -1.086580 -11.435844 -7.692720 -8.718725 -15.902256 12.884081 3.784316 32.620872 1.434297 -24.457345 -0.837787 15.441751 49.186032 0.549784 10.256311 0.849153 0.682320 0.331060 0.548110 17.791669 -9.742740 2.519280 -11.431511 5.917874 -19.438781 13.477415 -14.413343 44.904206 -1.226255 -7.807583 1.805509 0.100770 0.060790 0.243660 -1.820729 -2.525889 -8.409684 -10.130962 5.146468 16.970631 4.277305 5.025415 7.859852 2.019764 2.509252 -13.639681 1.811025 0.014173 52.223376 5.338240 -0.342220 -9.065520 -19.075482 -21.418126 7.127799 -48.191700 -12.911164 -2.750649 -19.138197 -24.590168 1.221014 -3.433286 3.002688 0.686510 -0.041370 0.196940 0.285540 16.483734 23.874288 9.427890 41.054246 10.844541 -6.962869 55.114158 35.789805 11.269115 2.176060 -1.682463 -0.052500 0.166150 -0.252570 -0.204150 
-1.359430 16.443310 -1.063210 -12.110084 -7.676121 -8.794104 -15.881401 13.085921 3.533104 32.828330 2.146286 -22.513959 -0.186784 14.270982 45.502563 0.432592 9.673328 1.053574 0.626830 0.268970 0.473750 17.788030 -9.911998 2.443769 -9.761572 5.493984 -17.078356 13.362392 -13.364387 41.909943 -1.082170 -7.343523 1.983352 0.079600 0.138880 0.259950 -1.832356 -2.471521 -8.173078 -10.199936 5.053370 15.775845 2.532590 5.298146 9.326655 3.192705 2.934735 -13.787850 2.995555 0.147307 50.782626 5.461960 -0.894920 -6.818990 -16.946073 -21.107207 7.025557 -48.432579 -13.918060 -2.131991 -18.753094 -24.301750 1.200816 -3.500844 3.032093 0.624460 0.022080 0.128020 0.292030 11.865694 23.363614 9.782280 36.570038 11.139235 -6.177785 66.808785 41.121731 17.784567 2.187593 -1.786638 -0.061660 0.156780 -0.211790 -0.177990 
-1.430220 16.549800 -1.051790 -12.229831 -7.392373 -8.996738 -15.831384 13.326898 3.280884 32.377268 2.501486 -20.572433 0.319406 13.016708 41.636301 0.316842 9.001906 1.296565 0.591620 0.225840 0.432630 17.782110 -10.109416 2.410333 -9.003843 4.805165 -14.791742 13.637856 -12.477634 38.332597 -0.957516 -6.843610 2.171416 0.058340 0.181520 0.254000 -1.877819 -2.470339 -7.991746 -10.074933 4.817470 15.218366 0.157789 5.537485 10.663989 4.306113 2.842679 -14.371457 2.782195 0.597045 50.458192 5.927550 -1.659400 -5.634880 -14.947102 -21.035291 6.929483 -47.871170 -14.735145 -1.696048 -18.274174 -24.251780 1.226277 -3.512461 3.031260 0.600110 0.041800 0.092370 0.298640 7.496437 23.322818 10.768040 32.024280 10.221184 -5.702528 78.669106 48.012492 27.094292 2.226905 -1.828339 -0.072360 0.164720 -0.193570 -0.160160 
